<svg width="399" height="380" viewBox="0 0 399 380" fill="none" xmlns="http://www.w3.org/2000/svg">
<g filter="url(#filter0_d)">
<path d="M11 4H399V374H11V4Z" fill="url(#paint0_linear)"/>
</g>
<path d="M16 357.5H394.5" stroke="#4778BA" stroke-opacity="0.7"/>
<path fill-rule="evenodd" clip-rule="evenodd" d="M153.375 300.188H125.625C125.012 300.188 124.423 300.418 123.99 300.828C123.556 301.238 123.312 301.795 123.312 302.375V328.625C123.312 329.205 123.556 329.762 123.99 330.172C124.423 330.582 125.012 330.812 125.625 330.812H153.375C153.988 330.812 154.577 330.582 155.01 330.172C155.444 329.762 155.688 329.205 155.688 328.625V302.375C155.688 301.795 155.444 301.238 155.01 300.828C154.577 300.418 153.988 300.188 153.375 300.188ZM125.625 298C124.398 298 123.222 298.461 122.355 299.281C121.487 300.102 121 301.215 121 302.375V328.625C121 329.785 121.487 330.898 122.355 331.719C123.222 332.539 124.398 333 125.625 333H153.375C154.602 333 155.778 332.539 156.645 331.719C157.513 330.898 158 329.785 158 328.625V302.375C158 301.215 157.513 300.102 156.645 299.281C155.778 298.461 154.602 298 153.375 298H125.625Z" fill="url(#paint1_linear)"/>
<path fill-rule="evenodd" clip-rule="evenodd" d="M140.319 322.837C140.426 322.735 140.512 322.615 140.57 322.482C140.628 322.349 140.658 322.206 140.658 322.062C140.658 321.919 140.628 321.776 140.57 321.643C140.512 321.51 140.426 321.39 140.319 321.288L134.197 315.5L140.319 309.712C140.426 309.61 140.511 309.489 140.57 309.357C140.628 309.224 140.658 309.081 140.658 308.937C140.658 308.794 140.628 308.651 140.57 308.518C140.511 308.386 140.426 308.265 140.319 308.163C140.211 308.061 140.083 307.981 139.943 307.926C139.803 307.871 139.652 307.842 139.5 307.842C139.348 307.842 139.197 307.871 139.057 307.926C138.916 307.981 138.789 308.061 138.681 308.163L131.744 314.726C131.636 314.827 131.551 314.948 131.492 315.081C131.434 315.214 131.404 315.356 131.404 315.5C131.404 315.644 131.434 315.786 131.492 315.919C131.551 316.052 131.636 316.173 131.744 316.274L138.681 322.837C138.789 322.939 138.916 323.02 139.057 323.075C139.197 323.13 139.348 323.158 139.5 323.158C139.652 323.158 139.803 323.13 139.943 323.075C140.084 323.02 140.211 322.939 140.319 322.837Z" fill="url(#paint2_linear)"/>
<path fill-rule="evenodd" clip-rule="evenodd" d="M147.594 315.5C147.594 315.21 147.472 314.932 147.255 314.727C147.038 314.521 146.744 314.406 146.438 314.406H134.875C134.568 314.406 134.274 314.521 134.057 314.727C133.841 314.932 133.719 315.21 133.719 315.5C133.719 315.79 133.841 316.068 134.057 316.273C134.274 316.479 134.568 316.594 134.875 316.594H146.438C146.744 316.594 147.038 316.479 147.255 316.273C147.472 316.068 147.594 315.79 147.594 315.5Z" fill="url(#paint3_linear)"/>
<path fill-rule="evenodd" clip-rule="evenodd" d="M251.625 330.812H279.375C279.988 330.812 280.577 330.582 281.01 330.172C281.444 329.762 281.687 329.205 281.687 328.625V302.375C281.687 301.795 281.444 301.238 281.01 300.828C280.577 300.418 279.988 300.187 279.375 300.187H251.625C251.012 300.187 250.423 300.418 249.99 300.828C249.556 301.238 249.312 301.795 249.312 302.375V328.625C249.312 329.205 249.556 329.762 249.99 330.172C250.423 330.582 251.012 330.812 251.625 330.812ZM279.375 333C280.602 333 281.778 332.539 282.645 331.719C283.513 330.898 284 329.785 284 328.625V302.375C284 301.215 283.513 300.102 282.645 299.281C281.778 298.461 280.602 298 279.375 298H251.625C250.398 298 249.222 298.461 248.355 299.281C247.487 300.102 247 301.215 247 302.375V328.625C247 329.785 247.487 330.898 248.355 331.719C249.222 332.539 250.398 333 251.625 333H279.375Z" fill="url(#paint4_linear)"/>
<path fill-rule="evenodd" clip-rule="evenodd" d="M264.681 308.163C264.574 308.265 264.488 308.385 264.43 308.518C264.372 308.651 264.342 308.794 264.342 308.937C264.342 309.081 264.372 309.224 264.43 309.357C264.488 309.49 264.574 309.61 264.681 309.712L270.803 315.5L264.681 321.288C264.574 321.39 264.489 321.511 264.43 321.643C264.372 321.776 264.342 321.919 264.342 322.062C264.342 322.206 264.372 322.349 264.43 322.482C264.489 322.614 264.574 322.735 264.681 322.837C264.789 322.939 264.917 323.019 265.057 323.074C265.197 323.129 265.348 323.158 265.5 323.158C265.652 323.158 265.803 323.129 265.943 323.074C266.083 323.019 266.211 322.939 266.319 322.837L273.256 316.274C273.364 316.173 273.449 316.052 273.508 315.919C273.566 315.786 273.596 315.644 273.596 315.5C273.596 315.356 273.566 315.214 273.508 315.081C273.449 314.948 273.364 314.827 273.256 314.726L266.319 308.163C266.211 308.061 266.084 307.98 265.943 307.925C265.803 307.87 265.652 307.842 265.5 307.842C265.348 307.842 265.197 307.87 265.057 307.925C264.916 307.98 264.789 308.061 264.681 308.163Z" fill="url(#paint5_linear)"/>
<path fill-rule="evenodd" clip-rule="evenodd" d="M257.406 315.5C257.406 315.79 257.528 316.068 257.745 316.273C257.962 316.479 258.256 316.594 258.562 316.594H270.125C270.432 316.594 270.726 316.479 270.943 316.273C271.159 316.068 271.281 315.79 271.281 315.5C271.281 315.21 271.159 314.932 270.943 314.727C270.726 314.521 270.432 314.406 270.125 314.406H258.562C258.256 314.406 257.962 314.521 257.745 314.727C257.528 314.932 257.406 315.21 257.406 315.5Z" fill="url(#paint6_linear)"/>
<path d="M171 316H238.5" stroke="url(#paint7_linear)"/>
<path d="M168.352 181.768C167.669 181.683 166.261 181.533 164.128 181.32C161.995 181.107 160.16 181 158.624 181C157.259 181 155.68 181.085 153.888 181.256C152.139 181.427 150.987 181.555 150.432 181.64L150.88 177.224C152.672 176.883 153.888 176.349 154.528 175.624C155.168 174.899 155.488 173.64 155.488 171.848V147.592C155.488 146.227 155.36 145.309 155.104 144.84C154.848 144.371 154.315 144.136 153.504 144.136C153.035 144.136 152.587 144.157 152.16 144.2C151.776 144.243 151.52 144.264 151.392 144.264L151.008 143.688L151.52 139.72C152.117 139.72 153.227 139.763 154.848 139.848C156.512 139.891 158.133 139.912 159.712 139.912C161.589 139.912 163.552 139.869 165.6 139.784C167.648 139.699 169.056 139.635 169.824 139.592C176.309 139.592 181.387 141.299 185.056 144.712C188.725 148.083 190.56 152.776 190.56 158.792C190.56 163.229 189.6 167.197 187.68 170.696C185.803 174.195 183.179 176.925 179.808 178.888C176.437 180.808 172.619 181.768 168.352 181.768ZM166.432 145.16C165.749 145.16 165.28 145.267 165.024 145.48C164.811 145.693 164.683 146.099 164.64 146.696C164.085 158.344 163.808 166.664 163.808 171.656C163.808 172.893 163.957 173.832 164.256 174.472C164.555 175.112 165.067 175.56 165.792 175.816C166.56 176.072 167.669 176.2 169.12 176.2C172.832 176.2 175.648 174.92 177.568 172.36C179.488 169.757 180.448 165.896 180.448 160.776C180.448 155.357 179.296 151.411 176.992 148.936C174.731 146.419 171.211 145.16 166.432 145.16Z" fill="url(#paint8_angular)"/>
<path d="M209.576 170.208C209.064 180.533 208.808 188.96 208.808 195.488C208.808 197.237 208.979 198.411 209.32 199.008C209.661 199.563 210.323 199.84 211.304 199.84C211.987 199.84 212.563 199.819 213.032 199.776C213.544 199.733 213.864 199.691 213.992 199.648L214.312 200.096L213.736 204.192C213.011 204.192 211.688 204.149 209.768 204.064C207.891 204.021 206.056 204 204.264 204C202.728 204 201 204.064 199.08 204.192C197.16 204.363 195.901 204.491 195.304 204.576L195.752 200.416C197.629 200.032 198.867 199.477 199.464 198.752C200.104 198.027 200.424 196.789 200.424 195.04V170.4C200.424 169.077 200.275 168.203 199.976 167.776C199.677 167.307 199.059 167.072 198.12 167.072L195.944 167.136L195.624 166.624L196.072 162.848L204.968 162.912C206.163 162.912 207.805 162.848 209.896 162.72C212.029 162.592 213.437 162.507 214.12 162.464L213.736 166.752C212.115 166.965 211.027 167.307 210.472 167.776C209.96 168.203 209.661 169.013 209.576 170.208Z" fill="url(#paint9_angular)"/>
<path d="M233.144 181.768C231.139 181.768 229.304 181.576 227.64 181.192C225.976 180.851 224.589 180.467 223.48 180.04C222.371 179.613 221.816 179.379 221.816 179.336L221.304 178.44C221.347 178.141 221.432 177.501 221.56 176.52C221.731 175.496 221.901 174.131 222.072 172.424C222.243 170.717 222.328 169.096 222.328 167.56L227.704 167.112C227.704 169.501 227.917 171.336 228.344 172.616C228.771 173.896 229.475 174.792 230.456 175.304C231.48 175.816 232.909 176.072 234.744 176.072C236.749 176.072 238.349 175.624 239.544 174.728C240.781 173.832 241.4 172.637 241.4 171.144C241.4 170.163 241.059 169.288 240.376 168.52C239.693 167.752 238.861 167.091 237.88 166.536C236.899 165.939 235.469 165.171 233.592 164.232L231.928 163.464C228.771 161.928 226.296 160.307 224.504 158.6C222.712 156.893 221.816 154.675 221.816 151.944C221.816 149.469 222.541 147.272 223.992 145.352C225.443 143.389 227.469 141.875 230.072 140.808C232.675 139.699 235.64 139.144 238.968 139.144C240.845 139.144 242.595 139.272 244.216 139.528C245.837 139.784 247.117 140.061 248.056 140.36C249.037 140.616 249.656 140.787 249.912 140.872L250.36 141.704C250.232 142.301 249.976 143.688 249.592 145.864C249.251 147.997 248.995 150.28 248.824 152.712L243.96 153.096L243.384 152.648C243.384 152.52 243.384 152.264 243.384 151.88C243.427 151.453 243.448 150.963 243.448 150.408C243.448 148.531 242.979 147.208 242.04 146.44C241.101 145.629 239.523 145.224 237.304 145.224C235.512 145.224 234.04 145.651 232.888 146.504C231.736 147.357 231.16 148.445 231.16 149.768C231.16 151.219 231.843 152.456 233.208 153.48C234.573 154.461 236.685 155.613 239.544 156.936C241.933 158.088 243.896 159.133 245.432 160.072C246.968 161.011 248.269 162.227 249.336 163.72C250.403 165.171 250.936 166.877 250.936 168.84C250.936 171.4 250.189 173.661 248.696 175.624C247.245 177.587 245.176 179.101 242.488 180.168C239.8 181.235 236.685 181.768 233.144 181.768Z" fill="url(#paint10_angular)"/>
<defs>
<filter id="filter0_d" x="0" y="0" width="399" height="380" filterUnits="userSpaceOnUse" color-interpolation-filters="sRGB">
<feFlood flood-opacity="0" result="BackgroundImageFix"/>
<feColorMatrix in="SourceAlpha" type="matrix" values="0 0 0 0 0 0 0 0 0 0 0 0 0 0 0 0 0 0 127 0"/>
<feOffset dx="-6" dy="1"/>
<feGaussianBlur stdDeviation="2.5"/>
<feColorMatrix type="matrix" values="0 0 0 0 0 0 0 0 0 0 0 0 0 0 0 0 0 0 0.22 0"/>
<feBlend mode="darken" in2="BackgroundImageFix" result="effect1_dropShadow"/>
<feBlend mode="normal" in="SourceGraphic" in2="effect1_dropShadow" result="shape"/>
</filter>
<linearGradient id="paint0_linear" x1="11" y1="7.56749" x2="398.458" y2="378.242" gradientUnits="userSpaceOnUse">
<stop stop-color="#084699"/>
<stop offset="1" stop-color="#9EB5E1"/>
</linearGradient>
<linearGradient id="paint1_linear" x1="124.5" y1="301.5" x2="158" y2="333" gradientUnits="userSpaceOnUse">
<stop stop-color="#5CAFC9"/>
<stop offset="0.9999" stop-color="#9EB5E1"/>
<stop offset="1" stop-color="#287A94"/>
</linearGradient>
<linearGradient id="paint2_linear" x1="136.031" y1="307.842" x2="136.031" y2="323.158" gradientUnits="userSpaceOnUse">
<stop stop-color="#3775C8"/>
<stop offset="1" stop-color="#C2C2C2"/>
</linearGradient>
<linearGradient id="paint3_linear" x1="140.656" y1="314.406" x2="140.656" y2="316.594" gradientUnits="userSpaceOnUse">
<stop stop-color="#3775C8"/>
<stop offset="1" stop-color="#C2C2C2"/>
</linearGradient>
<linearGradient id="paint4_linear" x1="247" y1="298" x2="284" y2="333" gradientUnits="userSpaceOnUse">
<stop stop-color="#5CAFC9"/>
<stop offset="1" stop-color="#287A94"/>
</linearGradient>
<linearGradient id="paint5_linear" x1="247" y1="298" x2="284" y2="333" gradientUnits="userSpaceOnUse">
<stop stop-color="#5CAFC9"/>
<stop offset="1" stop-color="#287A94"/>
</linearGradient>
<linearGradient id="paint6_linear" x1="247" y1="298" x2="284" y2="333" gradientUnits="userSpaceOnUse">
<stop stop-color="#5CAFC9"/>
<stop offset="1" stop-color="#287A94"/>
</linearGradient>
<linearGradient id="paint7_linear" x1="238" y1="316" x2="171" y2="316" gradientUnits="userSpaceOnUse">
<stop stop-color="#4393CD"/>
<stop offset="1" stop-color="#1D4D70"/>
</linearGradient>
<radialGradient id="paint8_angular" cx="0" cy="0" r="1" gradientUnits="userSpaceOnUse" gradientTransform="translate(186 181) rotate(90) scale(51 38)">
<stop offset="0.078125" stop-color="#8790B0"/>
<stop offset="0.473958" stop-color="#C9CBF8"/>
</radialGradient>
<radialGradient id="paint9_angular" cx="0" cy="0" r="1" gradientUnits="userSpaceOnUse" gradientTransform="translate(211 181) rotate(90) scale(28 18)">
<stop offset="0.078125" stop-color="#8790B0"/>
<stop offset="0.473958" stop-color="#C9CBF8"/>
</radialGradient>
<radialGradient id="paint10_angular" cx="0" cy="0" r="1" gradientUnits="userSpaceOnUse" gradientTransform="translate(247 160) rotate(90) scale(30 28)">
<stop offset="0.078125" stop-color="#8790B0"/>
<stop offset="0.473958" stop-color="#C9CBF8"/>
</radialGradient>
</defs>
</svg>
